# xmcd CD database file
#
# Track frame offsets:
#	150
#	23958
#	49545
#	71434
#	91816
#	112661
#	132414
#	158018
#	172366
#	201193
#
# Disc length: 2971 seconds
#
# Revision: 0
# Processed by: cddbd v1.5.1PL2 Copyright (c) Steve Scherf et al.
# Submitted via: CDex 1.51
#
DISCID=7f0b990a
DTITLE=Samirah Evans - Give Me a Moment
DYEAR=2002
DGENRE=Jazz
TTITLE0=Someone to Watch Over Me
TTITLE1=Moody Mood
TTITLE2=Don't Let Me Be Lonely
TTITLE3=Caravan
TTITLE4=Invitation
TTITLE5=Give Me a Moment
TTITLE6=Fly Me to the Moon
TTITLE7=It Don't Mean a Thing
TTITLE8=It Happened
TTITLE9=Feel Like Makin' Love
EXTD=YEAR: 2002
EXTT0=
EXTT1=
EXTT2=
EXTT3=
EXTT4=
EXTT5=
EXTT6=
EXTT7=
EXTT8=
EXTT9=
PLAYORDER=
